<svg width="50" height="56" viewBox="0 0 50 56" fill="none" xmlns="http://www.w3.org/2000/svg">
<path d="M21.4233 50.3534L20.8176 38.2116C20.6292 33.9075 16.9872 30.571 12.683 30.7596C8.64282 30.9364 5.40777 34.1715 5.2309 38.2116L4.62424 50.3534C4.59845 50.8682 4.99489 51.3064 5.50974 51.3322C5.52572 51.333 5.54159 51.3334 5.55757 51.3334H20.49C21.0054 51.334 21.4238 50.9166 21.4245 50.4012C21.4245 50.3852 21.424 50.3694 21.4233 50.3534ZM6.53757 49.4667L7.09757 38.305C7.27187 35.0318 10.0667 32.5196 13.3399 32.694C16.3694 32.8554 18.7896 35.2755 18.9509 38.305L19.5109 49.4667H6.53757Z" fill="#605959"/>
<path d="M26.0378 50.8891L25.2911 36.3151C25.2001 33.9491 24.672 31.6204 23.7334 29.4467L20.0449 20.8889C19.2364 19.0013 18.7712 16.9844 18.671 14.9333H19.6043C20.1198 14.9333 20.5377 14.5154 20.5377 14V8.4C20.5377 7.88457 20.1198 7.46667 19.6043 7.46667H16.6466L15.8159 0.8176C15.7576 0.350583 15.3607 0.000116667 14.8901 0H11.1567C10.6861 0.000116667 10.2892 0.350583 10.2309 0.8176L9.39926 7.46667H6.53766C6.02222 7.46667 5.60433 7.88457 5.60433 8.4V14C5.60433 14.5154 6.02222 14.9333 6.53766 14.9333H7.37766C7.27814 16.9847 6.81322 19.0018 6.00472 20.8899L2.31433 29.4467C1.37609 31.6175 0.848175 33.9435 0.757525 36.3067L0.00432541 50.8993C-0.0389579 51.9304 0.243492 52.9489 0.811659 53.8104C1.70113 55.1766 3.22094 56.0004 4.85113 56H21.1957C22.8247 55.9986 24.3429 55.175 25.2323 53.8104C25.8015 52.9457 26.0834 51.9233 26.0378 50.8891ZM11.9809 1.86667H14.0659L14.7659 7.46667H11.2799L11.9809 1.86667ZM7.47099 9.33333H18.671V13.0667H7.47099V9.33333ZM23.6699 52.7875C23.1249 53.6245 22.1946 54.1305 21.1957 54.1333H4.85113C3.85129 54.1311 2.92006 53.6247 2.37499 52.7865C2.02266 52.2532 1.84638 51.6229 1.87099 50.9843L2.61766 36.3879C2.70026 34.2511 3.17743 32.1481 4.02513 30.1849L7.71739 21.6281C8.63416 19.5084 9.15939 17.2402 9.26766 14.9333H16.7791C16.8869 17.2403 17.4122 19.5085 18.3294 21.6281L22.0179 30.1849C22.8669 32.1519 23.3441 34.2592 23.4254 36.4L24.1721 50.974C24.1983 51.6161 24.0227 52.2503 23.6699 52.7875Z" fill="#605959"/>
<path d="M45.7378 15.8669V14.9336C46.2532 14.9336 46.6711 14.5157 46.6711 14.0003V9.33359C46.6711 8.81816 46.2532 8.40026 45.7378 8.40026H42.8286L41.997 1.75119C41.9386 1.28418 41.5417 0.93371 41.0711 0.933594H38.2711C37.8005 0.93371 37.4036 1.28418 37.3452 1.75119L36.5136 8.40026H33.6044C33.089 8.40026 32.6711 8.81816 32.6711 9.33359V14.0003C32.6711 14.5157 33.089 14.9336 33.6044 14.9336V15.8669C31.5426 15.8669 29.8711 17.5384 29.8711 19.6003V54.1336C29.8711 55.1646 30.7068 56.0003 31.7378 56.0003H47.6044C48.6354 56.0003 49.4711 55.1646 49.4711 54.1336V19.6003C49.4711 17.5384 47.7996 15.8669 45.7378 15.8669ZM39.0952 2.80026H40.247L40.947 8.40026H38.3952L39.0952 2.80026ZM34.5378 10.2669H44.8044V13.0669H34.5378V10.2669ZM43.8711 14.9336V15.8669H35.4711V14.9336H43.8711ZM47.6044 54.1336H31.7378V49.4669H47.6044V54.1336ZM47.6044 47.6003H31.7378V26.1336H47.6044V47.6003ZM47.6044 24.2669H31.7378V19.6003C31.7378 18.5693 32.5734 17.7336 33.6044 17.7336H45.7378C46.7687 17.7336 47.6044 18.5693 47.6044 19.6003V24.2669Z" fill="#605959"/>
</svg>
