<svg width="56" height="56" viewBox="0 0 56 56" fill="none" xmlns="http://www.w3.org/2000/svg">
<path d="M39.6007 32.6418C39.4753 32.5164 39.3124 32.4349 39.1366 32.4097L35.3469 31.8683L33.2199 29.7414C32.8995 29.4209 32.3801 29.421 32.0598 29.7414C31.7394 30.0618 31.7394 30.5812 32.0598 30.9015L33.8 32.6417L32.6398 33.8019L29.1594 30.3214L38.0749 21.406C40.8746 22.7472 44.2484 22.1932 46.4789 19.9627L55.76 10.6816C56.0804 10.3612 56.0804 9.84178 55.76 9.52141C54.1608 7.92218 51.5586 7.92218 49.9593 9.52141L43.5786 15.9021L40.0982 12.4217L46.4789 6.04097C48.0781 4.44174 48.0781 1.83951 46.4789 0.240278C46.1585 -0.0800927 45.6391 -0.0800927 45.3187 0.240278L36.0376 9.52141C33.8071 11.7519 33.2531 15.1257 34.5943 17.9254L27.9992 24.5205L22.4216 18.9429C24.3687 15.4587 23.7839 11.0241 20.9219 8.16215L13.961 1.20128C12.3618 -0.397948 9.75952 -0.397948 8.16029 1.20128L1.19942 8.16215C-0.399807 9.76138 -0.399807 12.3636 1.19942 13.9628L8.16029 20.9237C11.0223 23.7857 15.4569 24.3706 18.941 22.4234L24.5187 28.0011L20.6516 31.8682L16.8618 32.4096C16.6861 32.4348 16.5233 32.5161 16.3977 32.6416L1.43995 47.5998C-0.479107 49.5189 -0.479107 52.6415 1.43995 54.5607C3.359 56.4797 6.48166 56.4797 8.40082 54.5607L23.3588 39.6027C23.4843 39.4772 23.5658 39.3144 23.5908 39.1386L24.1322 35.3488L27.9993 31.4817L31.8664 35.3488L32.4078 39.1386C32.4329 39.3143 32.5144 39.4771 32.6399 39.6027L47.598 54.5607C48.5574 55.5202 49.8179 56 51.0783 56C52.3388 56 53.5991 55.5202 54.5587 54.5607C56.4778 52.6415 56.4778 49.519 54.5587 47.5998L39.6007 32.6418ZM19.6456 20.8078C19.3698 20.5319 18.9377 20.4885 18.6125 20.704C15.7016 22.6324 11.7939 22.237 9.3207 19.7639L2.35982 12.803C1.40024 11.8434 1.40024 10.2821 2.35982 9.32255L9.3207 2.36168C10.2803 1.4021 11.8416 1.4021 12.8011 2.36168L19.762 9.32255C22.2352 11.7957 22.6306 15.7035 20.7021 18.6144C20.4866 18.9396 20.5301 19.3716 20.8059 19.6475L26.8394 25.6809L25.6792 26.8411L19.6456 20.8078ZM7.24064 53.4005C5.96123 54.6799 3.87953 54.6799 2.60013 53.4005C1.32072 52.1211 1.32072 50.0394 2.60013 48.76L16.978 34.3821L21.6185 39.0226L7.24064 53.4005ZM22.1986 37.2824L18.7182 33.802L20.7485 33.5119L22.4887 35.2521L22.1986 37.2824ZM23.3587 33.802L22.1985 32.6418L36.1838 18.6565C36.4485 18.3918 36.5005 17.9815 36.3102 17.6593C34.9788 15.405 35.3438 12.5358 37.1978 10.6818L45.7994 2.08014C46.2353 2.99477 46.0751 4.12476 45.3187 4.88112L38.3578 11.842C38.0375 12.1624 38.0375 12.6818 38.3578 13.0022L42.9983 17.6427C43.3187 17.9631 43.8382 17.9631 44.1585 17.6427L51.1194 10.6818C51.8757 9.92556 53.0058 9.76532 53.9204 10.2011L45.3187 18.8028C43.4647 20.6567 40.5954 21.0217 38.3412 19.6904C38.0189 19.5 37.6087 19.552 37.344 19.8167L23.3587 33.802ZM33.51 35.2521L35.2502 33.5119L37.2803 33.802L33.7999 37.2824L33.51 35.2521ZM53.3985 53.4005C52.1191 54.6799 50.0373 54.6799 48.7579 53.4005L34.3801 39.0225L39.0206 34.382L53.3985 48.7599C54.6779 50.0393 54.6779 52.1211 53.3985 53.4005V53.4005Z" fill="#605959"/>
</svg>
