<svg xmlns="http://www.w3.org/2000/svg" viewBox="0 0 42.98 56"><defs><style>.cls-1{fill:#605959;}</style></defs><g id="Layer_2" data-name="Layer 2"><g id="Layer_2-2" data-name="Layer 2"><path class="cls-1" d="M41.12,18.35h-.06l1.87-9.06a2.41,2.41,0,0,0-.38-1.89,2.14,2.14,0,0,0-1.47-.89l-3.16-.42a2.41,2.41,0,0,0-.71,0l0-.23A2.44,2.44,0,0,0,36.7,4a2.2,2.2,0,0,0-1.56-.79L32.8,3.09a2.54,2.54,0,0,0-.49-1.84A2.25,2.25,0,0,0,30.78.38L27.52,0a2.29,2.29,0,0,0-1.68.51,2.6,2.6,0,0,0-.93,1.75l-.29,3.08A2.16,2.16,0,0,0,24.35,5a2.26,2.26,0,0,0-1.61-.69H19.5a2.22,2.22,0,0,0-1.2.36l-.23-2.42A2.6,2.6,0,0,0,17.14.52,2.29,2.29,0,0,0,15.46,0L12.2.38a2.25,2.25,0,0,0-1.53.87,2.54,2.54,0,0,0-.49,1.84l-2.34.13A2.22,2.22,0,0,0,6.28,4a2.48,2.48,0,0,0-.54,1.87l0,.24a2.11,2.11,0,0,0-.71,0L1.9,6.51A2.16,2.16,0,0,0,.43,7.4,2.41,2.41,0,0,0,.05,9.29l1.88,9.06H1.86A1.84,1.84,0,0,0,.44,19,1.82,1.82,0,0,0,0,20.53L5.88,54.46A1.85,1.85,0,0,0,7.71,56H35.27a1.87,1.87,0,0,0,1.84-1.54L43,20.53A1.82,1.82,0,0,0,42.54,19,1.84,1.84,0,0,0,41.12,18.35ZM37,8.15a.73.73,0,0,1,.72-.43l3.16.42a.5.5,0,0,1,.36.22.75.75,0,0,1,.1.6l-1.94,9.39h-1.2L39,12a2.29,2.29,0,0,0-.5-1.75,2.13,2.13,0,0,0-1.54-.76h-.13Zm-1.12,3,1,.05a.48.48,0,0,1,.36.18.6.6,0,0,1,.13.49l-.82,6.51H32.7l.44-2.59a2.21,2.21,0,0,0-.3-1.53L33,11.7a.78.78,0,0,1,.34-.59.62.62,0,0,1,.38-.1l2.1.11ZM31.78,4.68h0l3.23.18a.59.59,0,0,1,.4.2.84.84,0,0,1,.16.63l-.25,2.14-.19,1.61-1.33-.07a2.37,2.37,0,0,0-2.44,2.2l-.13,1.63-.76-.12L31,5.49A.83.83,0,0,1,31.78,4.68Zm-.26,10.8L31,18.43a1.86,1.86,0,0,0-1.19,1.12,8.89,8.89,0,0,1-3.22,4.12c-.16.11-.32.22-.49.32l1.32-9.15a.63.63,0,0,1,.23-.38.55.55,0,0,1,.43-.1l1.4.22h0l1.55.24a.61.61,0,0,1,.37.23A.56.56,0,0,1,31.52,15.48Zm-6.81,5.93,1.84-19a.92.92,0,0,1,.32-.64.65.65,0,0,1,.47-.15L30.6,2a.58.58,0,0,1,.41.24.89.89,0,0,1,.16.68l0,.2h0l-.05,0-.15.06h0l-.28.15,0,0-.17.11h0l-.08.07,0,0-.14.12,0,0L30,3.84,30,3.92,29.91,4l0,.06-.06.09-.06.09,0,.06-.06.12,0,0-.05.12,0,0s0,.1,0,.15v0a.83.83,0,0,0,0,.15V5l0,.17v0a.88.88,0,0,0,0,.17l-.52,7.45-.53-.08a2.15,2.15,0,0,0-1.65.4,2.21,2.21,0,0,0-.88,1.47l-1.13,7.82ZM19.06,6.16A.67.67,0,0,1,19.5,6h3.24a.63.63,0,0,1,.44.2.85.85,0,0,1,.23.61L23.08,21l-.32-6.13A2.49,2.49,0,0,0,22,13.17a2.25,2.25,0,0,0-1.71-.65L19,12.59l0-1.08-.12-4.73A.85.85,0,0,1,19.06,6.16Zm1.33,8a.65.65,0,0,1,.48.19.92.92,0,0,1,.26.57l.54,10.36h-.18a8.94,8.94,0,0,1-3.95-.91l-.93-9.25a.8.8,0,0,1,.17-.59.57.57,0,0,1,.41-.2ZM12,2.25A.6.6,0,0,1,12.38,2l3.26-.37a.65.65,0,0,1,.47.15,1,1,0,0,1,.33.64l.88,9.15,0,1.09-.25,0a2.16,2.16,0,0,0-1.56.77A2.43,2.43,0,0,0,15,15.28l.45,4.48-1-2.44L13.58,5.37c0-.06,0-.11,0-.17v0l0-.17V5a.83.83,0,0,0,0-.15v0a1,1,0,0,0-.05-.16l0,0s0-.09-.05-.13l0,0a.61.61,0,0,0-.07-.14l0,0-.09-.13,0,0a.86.86,0,0,0-.07-.1l0,0-.1-.12,0,0-.09-.09,0,0-.11-.1,0,0-.13-.09h0l-.13-.08,0,0-.14-.07h0L12,3.19l-.17-.06h0l0-.2A.89.89,0,0,1,12,2.25ZM7.54,5.06a.56.56,0,0,1,.39-.2l3.24-.18h0a.82.82,0,0,1,.77.81l.49,7.11-.41-1a2.45,2.45,0,0,0-1.27-1.32l-.21-.08h0l-.21-.06h0l-.21,0h0l-.21,0H9.6l-.14,0H9.37l-.14,0-.08,0-.21.07-1,.42L7.81,9.42,7.37,5.69A.8.8,0,0,1,7.54,5.06ZM7.1,12.81l.48-.2,2-.83a.64.64,0,0,1,.52,0,.9.9,0,0,1,.43.45L14.61,22a8.77,8.77,0,0,1-1.46-2.49,1.85,1.85,0,0,0-1.74-1.2h-3L6.34,14a.79.79,0,0,1,0-.62.56.56,0,0,1,.07-.13A.52.52,0,0,1,6.61,13ZM1.66,9a.71.71,0,0,1,.11-.6.48.48,0,0,1,.35-.22l3.16-.42A.76.76,0,0,1,6,8.15l.17,1.48.2,1.7L6,11.5a2.21,2.21,0,0,0-1.21,1.26,2.38,2.38,0,0,0,.09,1.9l1.75,3.69h-3ZM4.23,35.28l-2.59-15a.22.22,0,0,1,.05-.18A.21.21,0,0,1,1.86,20h9.55a.24.24,0,0,1,.21.15,10.57,10.57,0,0,0,9.87,6.78h.64a10.32,10.32,0,0,0,1.48-.19h0A10.69,10.69,0,0,0,27.55,25a10.52,10.52,0,0,0,3.81-4.88.24.24,0,0,1,.21-.15h9.55a.2.2,0,0,1,.17.08.22.22,0,0,1,.05.18l-2.59,15h0l-.28,1.64h0l-.85,4.95h0l-.28,1.64h0L35.49,54.18a.23.23,0,0,1-.22.18H7.71a.23.23,0,0,1-.22-.18L5.65,43.51h0l-.27-1.64h0l-.85-4.95"/></g></g></svg>
